<svg width="32" height="32" viewBox="0 0 32 32" fill="none" xmlns="http://www.w3.org/2000/svg">
    <g id="play">
    <path d="M23.192 17.394L10.466 24.778C9.386 25.404 8 24.646 8 23.384L8 8.61596C8 7.35596 9.384 6.59596 10.466 7.22396L23.192 14.608C23.4377 14.7482 23.6419 14.9509 23.7839 15.1956C23.926 15.4402 24.0008 15.7181 24.0008 16.001C24.0008 16.2839 23.926 16.5617 23.7839 16.8063C23.6419 17.051 23.4377 17.2537 23.192 17.394Z" fill="#ABB2BF"/>
    </g>

    <g id="bitcoin">
        <path d="M12.1324 25.2308V27.5385C12.1324 27.7932 12.3382 28 12.5919 28H14.4301C14.552 28 14.6689 27.9514 14.7551 27.8648C14.8413 27.7783 14.8897 27.6609 14.8897 27.5385V25.2308H15.8088V27.5385C15.8088 27.7932 16.0147 28 16.2684 28H18.1066C18.2285 28 18.3454 27.9514 18.4316 27.8648C18.5178 27.7783 18.5662 27.6609 18.5662 27.5385V25.2308H18.7206C22.3824 25.2308 25 23.3237 25 20.0246C25 17.2517 23.1489 15.736 20.9816 15.52V15.3575C22.7647 14.9108 24.0754 13.5594 24.0754 11.3145C24.0754 8.48615 21.9614 6.76923 18.7353 6.76923H18.5662V4.46154C18.5662 4.33913 18.5178 4.22174 18.4316 4.13518C18.3454 4.04863 18.2285 4 18.1066 4H16.2684C16.1465 4 16.0296 4.04863 15.9434 4.13518C15.8572 4.22174 15.8088 4.33913 15.8088 4.46154V6.76923H14.7555V4.46154C14.7555 4.33913 14.7071 4.22174 14.6209 4.13518C14.5347 4.04863 14.4178 4 14.296 4H12.5919C12.47 4 12.3531 4.04863 12.267 4.13518C12.1808 4.22174 12.1324 4.33913 12.1324 4.46154V6.76923L8.45956 6.78954C8.33768 6.78954 8.22079 6.83816 8.1346 6.92472C8.04842 7.01128 8 7.12867 8 7.25108V9.07692C8 9.32985 8.20221 9.53846 8.45588 9.53846L9.84375 9.52923C10.2078 9.53167 10.5561 9.67862 10.8127 9.93802C11.0693 10.1974 11.2132 10.5482 11.2132 10.9138V21.0769C11.2132 21.4441 11.068 21.7963 10.8094 22.056C10.5509 22.3157 10.2002 22.4615 9.83456 22.4615L8.45956 22.4818C8.33768 22.4818 8.22079 22.5305 8.1346 22.617C8.04842 22.7036 8 22.821 8 22.9434V24.7895C8 25.0443 8.20588 25.2511 8.45956 25.2511L12.1324 25.2308ZM14.7555 9.51446H17.9154C19.5809 9.51446 20.5588 10.4338 20.5588 11.9366C20.5588 13.5446 19.5018 14.4511 17.1085 14.4511H14.7555V9.51446ZM14.7555 16.9932H18.1379C20.2279 16.9932 21.3658 18.064 21.3658 19.8068C21.3658 21.5662 20.2151 22.4837 17.3989 22.4837H14.7555V16.9951V16.9932Z" fill="#ABB2BF"/>
    </g>

    <g id="calendar">
        <path d="M10.375 6C10.5408 6 10.6997 6.06585 10.8169 6.18306C10.9342 6.30027 11 6.45924 11 6.625V7.25H21V6.625C21 6.45924 21.0658 6.30027 21.1831 6.18306C21.3003 6.06585 21.4592 6 21.625 6C21.7908 6 21.9497 6.06585 22.0669 6.18306C22.1842 6.30027 22.25 6.45924 22.25 6.625V7.25H23.5C24.163 7.25 24.7989 7.51339 25.2678 7.98223C25.7366 8.45107 26 9.08696 26 9.75V23.5C26 24.163 25.7366 24.7989 25.2678 25.2678C24.7989 25.7366 24.163 26 23.5 26H8.5C7.83696 26 7.20107 25.7366 6.73223 25.2678C6.26339 24.7989 6 24.163 6 23.5V12.25H26V11H6V9.75C6 9.08696 6.26339 8.45107 6.73223 7.98223C7.20107 7.51339 7.83696 7.25 8.5 7.25H9.75V6.625C9.75 6.45924 9.81585 6.30027 9.93306 6.18306C10.0503 6.06585 10.2092 6 10.375 6V6Z" fill="#ABB2BF"/>
    </g>

    <g id="card">
        <path d="M5 10.6667C5 9.95942 5.28973 9.28115 5.80546 8.78105C6.32118 8.28095 7.02065 8 7.75 8H24.25C24.9793 8 25.6788 8.28095 26.1945 8.78105C26.7103 9.28115 27 9.95942 27 10.6667V17.3333H5V10.6667ZM20.8125 12C20.6302 12 20.4553 12.0702 20.3264 12.1953C20.1974 12.3203 20.125 12.4899 20.125 12.6667V14C20.125 14.1768 20.1974 14.3464 20.3264 14.4714C20.4553 14.5964 20.6302 14.6667 20.8125 14.6667H23.5625C23.7448 14.6667 23.9197 14.5964 24.0486 14.4714C24.1776 14.3464 24.25 14.1768 24.25 14V12.6667C24.25 12.4899 24.1776 12.3203 24.0486 12.1953C23.9197 12.0702 23.7448 12 23.5625 12H20.8125ZM5 20V21.3333C5 22.0406 5.28973 22.7189 5.80546 23.219C6.32118 23.719 7.02065 24 7.75 24H24.25C24.9793 24 25.6788 23.719 26.1945 23.219C26.7103 22.7189 27 22.0406 27 21.3333V20H5Z" fill="#ABB2BF"/>
    </g>

    <g id="discord">
        <path d="M24.1641 7.65906C22.543 6.87826 20.8325 6.32099 19.0751 6.00114C19.0592 5.99832 19.0428 6.00076 19.0283 6.0081C19.0137 6.01544 19.0017 6.02733 18.9938 6.04214C18.7735 6.45211 18.5298 6.98835 18.3595 7.40816C16.4651 7.10643 14.5383 7.10643 12.6439 7.40816C12.4539 6.9405 12.239 6.48443 12.0002 6.04214C11.9922 6.02749 11.9801 6.01574 11.9656 6.00842C11.9511 6.0011 11.9348 5.99856 11.9189 6.00114C10.1611 6.31928 8.45021 6.87684 6.82991 7.65906C6.81605 7.66461 6.80445 7.67504 6.7971 7.68858C3.55651 12.7706 2.66745 17.7279 3.10339 22.623C3.10495 22.6459 3.11901 22.6689 3.1362 22.6836C5.02325 24.1507 7.13396 25.2708 9.37832 25.9962C9.39417 26.0014 9.4112 26.0013 9.42693 25.9957C9.44267 25.99 9.45629 25.9793 9.46582 25.965C9.94707 25.2763 10.3752 24.5498 10.7439 23.7856C10.7516 23.7699 10.7543 23.752 10.7514 23.7345C10.7486 23.7171 10.7405 23.7011 10.7283 23.6889C10.7202 23.6809 10.7107 23.6747 10.7002 23.6708C10.027 23.3993 9.37503 23.0731 8.7502 22.6951C8.73275 22.6847 8.71977 22.6677 8.71395 22.6476C8.70814 22.6274 8.70993 22.6057 8.71895 22.5869C8.72427 22.5747 8.73231 22.564 8.74239 22.5557C8.87364 22.4524 9.00489 22.3442 9.12989 22.236C9.14093 22.2266 9.15418 22.2206 9.16821 22.2186C9.18225 22.2166 9.19655 22.2186 9.20957 22.2245C13.3017 24.1858 17.7314 24.1858 21.7735 22.2245C21.787 22.2183 21.8018 22.2162 21.8164 22.2182C21.831 22.2202 21.8448 22.2264 21.8563 22.236C21.9813 22.3442 22.1126 22.4524 22.2438 22.5557C22.2544 22.5639 22.263 22.5747 22.2687 22.5872C22.2744 22.5996 22.277 22.6134 22.2764 22.6272C22.2758 22.641 22.2719 22.6544 22.2651 22.6663C22.2584 22.6781 22.2489 22.688 22.2376 22.6951C21.6142 23.0765 20.9614 23.4024 20.286 23.6692C20.2752 23.6733 20.2655 23.6798 20.2574 23.6883C20.2493 23.6968 20.243 23.7071 20.2391 23.7184C20.2355 23.7294 20.2341 23.741 20.2349 23.7525C20.2357 23.7641 20.2387 23.7754 20.2438 23.7856C20.6188 24.5482 21.0485 25.2763 21.5204 25.965C21.5299 25.9793 21.5435 25.99 21.5593 25.9957C21.575 26.0013 21.592 26.0014 21.6079 25.9962C23.856 25.2731 25.9701 24.1528 27.8594 22.6836C27.8688 22.6768 27.8767 22.6677 27.8824 22.6572C27.8881 22.6467 27.8914 22.635 27.8922 22.623C28.4141 16.9637 27.0188 12.0474 24.1954 7.69022C24.1925 7.68302 24.1883 7.67653 24.1829 7.67116C24.1775 7.66579 24.1711 7.66167 24.1641 7.65906ZM11.3549 19.6417C10.1221 19.6417 9.10801 18.4544 9.10801 16.9982C9.10801 15.5403 10.1033 14.353 11.3549 14.353C12.6158 14.353 13.6205 15.5502 13.6017 16.9982C13.6017 18.4544 12.6064 19.6417 11.3549 19.6417ZM19.661 19.6417C18.4298 19.6417 17.4142 18.4544 17.4142 16.9982C17.4142 15.5403 18.4095 14.353 19.661 14.353C20.922 14.353 21.9282 15.5502 21.9079 16.9982C21.9079 18.4544 20.922 19.6417 19.661 19.6417Z" fill="#ABB2BF"/>
    </g>

    <g id="dribble">
        <path fill-rule="evenodd" clip-rule="evenodd" d="M16.5 4C10.152 4 5 9.152 5 15.5C5 21.848 10.152 27 16.5 27C22.8365 27 28 21.848 28 15.5C28 9.152 22.8365 4 16.5 4ZM24.0958 9.3015C25.5115 11.0255 26.2951 13.1817 26.3167 15.4123C25.9918 15.3505 22.7488 14.6892 19.4814 15.1004C19.4066 14.9394 19.3434 14.764 19.2686 14.5901C19.0688 14.1157 18.8446 13.6298 18.6203 13.1669C22.2371 11.6964 23.8844 9.57606 24.0972 9.30006L24.0958 9.3015ZM16.5 5.69625C18.9941 5.69625 21.2768 6.63063 23.0119 8.16587C22.8365 8.416 21.3516 10.3983 17.8599 11.7079C16.2499 8.75238 14.4674 6.33162 14.1928 5.95788C14.9491 5.78129 15.7234 5.69349 16.5 5.69625ZM12.3212 6.61913C13.6375 8.44338 14.8535 10.3379 15.9638 12.2944C11.3739 13.5162 7.32012 13.4918 6.88312 13.4918C7.19917 12.005 7.85438 10.6114 8.79766 9.41949C9.74094 8.22761 10.9468 7.26973 12.3212 6.62056V6.61913ZM6.67181 15.5144V15.2125C7.09588 15.2269 11.8612 15.2887 16.7631 13.8167C17.0491 14.3644 17.3108 14.9264 17.5609 15.4871L17.1728 15.5992C12.1099 17.2336 9.416 21.6985 9.19031 22.0737C7.56856 20.2734 6.67131 17.936 6.67181 15.5129V15.5144ZM16.5 25.3282C14.3172 25.3316 12.1964 24.6027 10.4769 23.2582C10.6494 22.8959 12.6461 19.0549 18.1833 17.1215C18.2092 17.1086 18.2207 17.1086 18.2466 17.0971C19.1801 19.5068 19.8814 22.0002 20.341 24.5433C19.1277 25.0646 17.8205 25.3318 16.5 25.3282ZM21.9769 23.6449C21.8763 23.0454 21.3516 20.1776 20.0679 16.6471C23.1484 16.1613 25.8423 16.9591 26.1787 17.0712C25.9692 18.3975 25.4876 19.6662 24.7643 20.7974C24.0409 21.9287 23.0914 22.8982 21.9754 23.6449H21.9769Z" fill="#ABB2BF"/>
    </g>

    <g id="email">
        <path d="M5.07187 9.20292C5.2168 8.57709 5.57307 8.01832 6.08232 7.6181C6.59158 7.21789 7.22365 6.99996 7.875 7H25.125C25.7764 6.99996 26.4084 7.21789 26.9177 7.6181C27.4269 8.01832 27.7832 8.57709 27.9281 9.20292L16.5 16.0865L5.07187 9.20292ZM5 10.8207V20.8847L13.3418 15.8442L5 10.8207ZM14.7189 16.6758L5.27456 22.3807C5.50791 22.8657 5.87619 23.2753 6.33656 23.5619C6.79693 23.8486 7.33044 24.0005 7.875 24H25.125C25.6695 24.0001 26.2028 23.8479 26.6629 23.561C27.123 23.274 27.491 22.8643 27.724 22.3793L18.2796 16.6744L16.5 17.7468L14.7189 16.6744V16.6758ZM19.6582 15.8457L28 20.8847V10.8207L19.6582 15.8442V15.8457Z" fill="#ABB2BF"/>
    </g>

    <g id="figma">
        <path d="M16 16C16 15.1159 16.3687 14.2681 17.0251 13.643C17.6815 13.0179 18.5717 12.6667 19.5 12.6667C20.4283 12.6667 21.3185 13.0179 21.9749 13.643C22.6313 14.2681 23 15.1159 23 16C23 16.8841 22.6313 17.7319 21.9749 18.357C21.3185 18.9821 20.4283 19.3333 19.5 19.3333C18.5717 19.3333 17.6815 18.9821 17.0251 18.357C16.3687 17.7319 16 16.8841 16 16ZM9 22.6667C9 21.7826 9.36875 20.9348 10.0251 20.3096C10.6815 19.6845 11.5717 19.3333 12.5 19.3333H16V22.6667C16 23.5507 15.6313 24.3986 14.9749 25.0237C14.3185 25.6488 13.4283 26 12.5 26C11.5717 26 10.6815 25.6488 10.0251 25.0237C9.36875 24.3986 9 23.5507 9 22.6667ZM16 6V12.6667H19.5C20.4283 12.6667 21.3185 12.3155 21.9749 11.6904C22.6313 11.0652 23 10.2174 23 9.33333C23 8.44928 22.6313 7.60143 21.9749 6.97631C21.3185 6.35119 20.4283 6 19.5 6H16ZM9 9.33333C9 10.2174 9.36875 11.0652 10.0251 11.6904C10.6815 12.3155 11.5717 12.6667 12.5 12.6667H16V6H12.5C11.5717 6 10.6815 6.35119 10.0251 6.97631C9.36875 7.60143 9 8.44928 9 9.33333ZM9 16C9 16.8841 9.36875 17.7319 10.0251 18.357C10.6815 18.9821 11.5717 19.3333 12.5 19.3333H16V12.6667H12.5C11.5717 12.6667 10.6815 13.0179 10.0251 13.643C9.36875 14.2681 9 15.1159 9 16Z" fill="#ABB2BF"/>
    </g>

    <g id="github">
        <path d="M15.5 6C9.69875 6 5 10.5882 5 16.2529C5 20.7899 8.00562 24.6219 12.1794 25.9804C12.7044 26.0701 12.9012 25.7625 12.9012 25.4934C12.9012 25.2499 12.8881 24.4425 12.8881 23.5838C10.25 24.058 9.5675 22.9558 9.3575 22.3791C9.23938 22.0843 8.7275 21.1743 8.28125 20.9308C7.91375 20.7386 7.38875 20.2644 8.26813 20.2516C9.095 20.2388 9.68563 20.9949 9.8825 21.3025C10.8275 22.8533 12.3369 22.4175 12.9406 22.1484C13.0325 21.4819 13.3081 21.0334 13.61 20.777C11.2737 20.5207 8.8325 19.6364 8.8325 15.7147C8.8325 14.5997 9.23938 13.6769 9.90875 12.9592C9.80375 12.7029 9.43625 11.6519 10.0138 10.2422C10.0138 10.2422 10.8931 9.97301 12.9012 11.2931C13.7413 11.0624 14.6338 10.947 15.5263 10.947C16.4188 10.947 17.3113 11.0624 18.1513 11.2931C20.1594 9.9602 21.0387 10.2422 21.0387 10.2422C21.6163 11.6519 21.2488 12.7029 21.1438 12.9592C21.8131 13.6769 22.22 14.5868 22.22 15.7147C22.22 19.6492 19.7656 20.5207 17.4294 20.777C17.81 21.0975 18.1381 21.7126 18.1381 22.6738C18.1381 24.0452 18.125 25.1474 18.125 25.4934C18.125 25.7625 18.3219 26.0829 18.8469 25.9804C20.9314 25.2935 22.7428 23.9854 24.026 22.2403C25.3092 20.4953 25.9996 18.4012 26 16.2529C26 10.5882 21.3013 6 15.5 6Z" fill="#ABB2BF"/>
    </g>

    <g id="landmark">
        <path d="M16.5 28C16.5 28 26 19.1156 26 12.375C26 9.8886 24.9991 7.50403 23.2175 5.74587C21.4359 3.98772 19.0196 3 16.5 3C13.9804 3 11.5641 3.98772 9.78249 5.74587C8.00089 7.50403 7 9.8886 7 12.375C7 19.1156 16.5 28 16.5 28ZM16.5 17.0625C15.2402 17.0625 14.032 16.5686 13.1412 15.6896C12.2504 14.8105 11.75 13.6182 11.75 12.375C11.75 11.1318 12.2504 9.93951 13.1412 9.06044C14.032 8.18136 15.2402 7.6875 16.5 7.6875C17.7598 7.6875 18.968 8.18136 19.8588 9.06044C20.7496 9.93951 21.25 11.1318 21.25 12.375C21.25 13.6182 20.7496 14.8105 19.8588 15.6896C18.968 16.5686 17.7598 17.0625 16.5 17.0625Z" fill="#ABB2BF"/>
    </g>

    <g id="linkedin">
        <path d="M4 5.719C4 4.7695 4.789 4 5.7625 4H26.2375C27.211 4 28 4.7695 28 5.719V26.281C28 27.2305 27.211 28 26.2375 28H5.7625C4.789 28 4 27.2305 4 26.281V5.719ZM11.4145 24.091V13.2535H7.813V24.091H11.4145ZM9.6145 11.773C10.87 11.773 11.6515 10.942 11.6515 9.901C11.629 8.8375 10.8715 8.029 9.6385 8.029C8.4055 8.029 7.6 8.839 7.6 9.901C7.6 10.942 8.3815 11.773 9.5905 11.773H9.6145ZM16.9765 24.091V18.0385C16.9765 17.7145 17.0005 17.3905 17.0965 17.1595C17.356 16.513 17.9485 15.8425 18.9445 15.8425C20.248 15.8425 20.7685 16.8355 20.7685 18.2935V24.091H24.37V17.875C24.37 14.545 22.594 12.997 20.224 12.997C18.313 12.997 17.4565 14.047 16.9765 14.7865V14.824H16.9525C16.9605 14.8115 16.9685 14.799 16.9765 14.7865V13.2535H13.3765C13.4215 14.2705 13.3765 24.091 13.3765 24.091H16.9765Z" fill="#ABB2BF"/>
    </g>

    <g id="telegram">
        <path d="M27 15.5C27 18.55 25.7884 21.4751 23.6317 23.6317C21.4751 25.7884 18.55 27 15.5 27C12.45 27 9.52494 25.7884 7.36827 23.6317C5.2116 21.4751 4 18.55 4 15.5C4 12.45 5.2116 9.52494 7.36827 7.36827C9.52494 5.2116 12.45 4 15.5 4C18.55 4 21.4751 5.2116 23.6317 7.36827C25.7884 9.52494 27 12.45 27 15.5ZM15.9126 12.4899C14.7942 12.9556 12.5574 13.9187 9.20519 15.3792C8.66181 15.5949 8.37575 15.8076 8.34987 16.0146C8.30675 16.3639 8.74519 16.5019 9.34175 16.6903L9.59331 16.7693C10.1798 16.9605 10.9704 17.1833 11.3801 17.1919C11.7539 17.2006 12.1693 17.0482 12.6279 16.7319C15.7602 14.6174 17.3774 13.5493 17.478 13.5263C17.5499 13.5091 17.6505 13.4889 17.7166 13.5493C17.7842 13.6083 17.777 13.7218 17.7698 13.752C17.7267 13.9374 16.006 15.5359 15.1162 16.3639C14.8387 16.6227 14.6418 16.8053 14.6016 16.8469C14.5129 16.9375 14.4228 17.0267 14.3313 17.1143C13.7851 17.6404 13.3768 18.0343 14.3529 18.6783C14.8229 18.9888 15.1996 19.2432 15.5747 19.4991C15.983 19.778 16.3912 20.0554 16.9202 20.4033C17.0539 20.4896 17.1833 20.583 17.3084 20.6721C17.7842 21.0114 18.214 21.3161 18.7416 21.2673C19.0492 21.2385 19.3669 20.951 19.5279 20.0885C19.9088 18.0516 20.6578 13.6399 20.8302 11.8214C20.8408 11.6703 20.8345 11.5184 20.8116 11.3686C20.798 11.2478 20.7395 11.1364 20.6477 11.0567C20.5169 10.9664 20.361 10.9196 20.2021 10.923C19.7708 10.9302 19.1052 11.1616 15.9126 12.4899Z" fill="#ABB2BF"/>
    </g>

    <g id="twitter">
        <path d="M11.2249 26C19.9045 26 24.6526 18.6883 24.6526 12.3587C24.6526 12.1541 24.6526 11.9466 24.6439 11.742C25.5683 11.0617 26.3661 10.2194 27 9.25459C26.1365 9.64165 25.2215 9.89676 24.2846 10.0116C25.2715 9.41189 26.0106 8.46827 26.3646 7.35615C25.4374 7.91461 24.4226 8.30664 23.3646 8.51509C22.6533 7.74493 21.712 7.23473 20.6866 7.0635C19.6612 6.89228 18.6089 7.06959 17.6927 7.56797C16.7764 8.06635 16.0474 8.85799 15.6185 9.82026C15.1896 10.7825 15.0848 11.8617 15.3203 12.8907C13.444 12.795 11.6084 12.2995 9.93262 11.4362C8.25682 10.5728 6.77823 9.36104 5.59275 7.87935C4.99093 8.93611 4.80726 10.1861 5.07905 11.3756C5.35085 12.565 6.05772 13.6047 7.05612 14.2835C6.30796 14.2576 5.57625 14.0534 4.92 13.6872V13.753C4.92129 14.86 5.2985 15.9326 5.98788 16.7895C6.67726 17.6464 7.63651 18.2351 8.7035 18.4559C8.2985 18.5694 7.88014 18.6259 7.46006 18.624C7.16391 18.6249 6.86836 18.597 6.57744 18.5407C6.87901 19.4937 7.46621 20.3269 8.25679 20.9236C9.04738 21.5203 10.0018 21.8507 10.9863 21.8685C9.3138 23.2039 7.24789 23.9282 5.12125 23.9247C4.74652 23.9263 4.37206 23.9044 4 23.859C6.15843 25.258 8.66512 26.0008 11.2249 26Z" fill="#ABB2BF"/>
    </g>


<!-- Dots (квадрат из точек)-->

    <g id="dots">
        <circle cx="2" cy="2" r="2" fill="#ABB2BF"/>
        <circle cx="22" cy="2" r="2" fill="#ABB2BF"/>
        <circle cx="42" cy="2" r="2" fill="#ABB2BF"/>
        <circle cx="62" cy="2" r="2" fill="#ABB2BF"/>
        <circle cx="82" cy="2" r="2" fill="#ABB2BF"/>
        <circle cx="2" cy="22" r="2" fill="#ABB2BF"/>
        <circle cx="22" cy="22" r="2" fill="#ABB2BF"/>
        <circle cx="42" cy="22" r="2" fill="#ABB2BF"/>
        <circle cx="62" cy="22" r="2" fill="#ABB2BF"/>
        <circle cx="82" cy="22" r="2" fill="#ABB2BF"/>
        <circle cx="2" cy="42" r="2" fill="#ABB2BF"/>
        <circle cx="22" cy="42" r="2" fill="#ABB2BF"/>
        <circle cx="42" cy="42" r="2" fill="#ABB2BF"/>
        <circle cx="62" cy="42" r="2" fill="#ABB2BF"/>
        <circle cx="82" cy="42" r="2" fill="#ABB2BF"/>
        <circle cx="2" cy="62" r="2" fill="#ABB2BF"/>
        <circle cx="22" cy="62" r="2" fill="#ABB2BF"/>
        <circle cx="42" cy="62" r="2" fill="#ABB2BF"/>
        <circle cx="62" cy="62" r="2" fill="#ABB2BF"/>
        <circle cx="82" cy="62" r="2" fill="#ABB2BF"/>
        <circle cx="2" cy="82" r="2" fill="#ABB2BF"/>
        <circle cx="22" cy="82" r="2" fill="#ABB2BF"/>
        <circle cx="42" cy="82" r="2" fill="#ABB2BF"/>
        <circle cx="62" cy="82" r="2" fill="#ABB2BF"/>
        <circle cx="82" cy="82" r="2" fill="#ABB2BF"/>
    </g>


<!-- Logo -->

    <g id="logo-default">
        <path fill-rule="evenodd" clip-rule="evenodd" d="M39 0H26V13H13H0V26V39V52H13H26V39H39H52V26V13V0H39ZM13 39H26V26H39V13H26V26H13V39Z" fill="white"/>
    </g>

    <g id="logo-outline">
        <mask id="path-1-inside-1_1103_3419" fill="white">
            <path fill-rule="evenodd" clip-rule="evenodd" d="M0 14H13H26V27H13V40H26V53H13H0V40V27V14Z"/>
        </mask>
        <path d="M0 14V13H-1V14H0ZM26 14H27V13H26V14ZM26 27V28H27V27H26ZM13 27V26H12V27H13ZM13 40H12V41H13V40ZM26 40H27V39H26V40ZM26 53V54H27V53H26ZM0 53H-1V54H0V53ZM13 13H0V15H13V13ZM26 13H13V15H26V13ZM27 27V14H25V27H27ZM13 28H26V26H13V28ZM14 40V27H12V40H14ZM13 41H26V39H13V41ZM25 40V53H27V40H25ZM26 52H13V54H26V52ZM0 54H13V52H0V54ZM-1 40V53H1V40H-1ZM-1 27V40H1V27H-1ZM-1 14V27H1V14H-1Z" fill="#C778DD" mask="url(#path-1-inside-1_1103_3419)"/>
        <mask id="path-3-outside-2_1103_3419" maskUnits="userSpaceOnUse" x="25" y="0" width="28" height="41" fill="black">
            <rect fill="white" x="25" width="28" height="41"/>
            <path fill-rule="evenodd" clip-rule="evenodd" d="M26 1H39H52V14V27V40H39H26V27H39V14H26V1Z"/>
        </mask>
        <path d="M26 1V0H25V1H26ZM52 1H53V0H52V1ZM52 40V41H53V40H52ZM26 40H25V41H26V40ZM26 27V26H25V27H26ZM39 27V28H40V27H39ZM39 14H40V13H39V14ZM26 14H25V15H26V14ZM39 0H26V2H39V0ZM52 0H39V2H52V0ZM53 14V1H51V14H53ZM53 27V14H51V27H53ZM53 40V27H51V40H53ZM39 41H52V39H39V41ZM39 39H26V41H39V39ZM27 40V27H25V40H27ZM26 28H39V26H26V28ZM38 14V27H40V14H38ZM26 15H39V13H26V15ZM25 1V14H27V1H25Z" fill="#C778DD" mask="url(#path-3-outside-2_1103_3419)"/>
    </g>


<!--     button-->

    <g id="btn-primary">
        <path d="M17.912 24V12.96H19.768V22.448H24.712L24.512 24H17.912ZM31.6338 15.552V22.688H33.9298V24H27.3138V22.688H29.8418V16.864H27.3938V15.552H31.6338ZM30.3858 11.416C30.7378 11.416 31.0204 11.5227 31.2338 11.736C31.4524 11.9493 31.5618 12.216 31.5618 12.536C31.5618 12.856 31.4524 13.1253 31.2338 13.344C31.0204 13.5627 30.7378 13.672 30.3858 13.672C30.0444 13.672 29.7644 13.5627 29.5458 13.344C29.3271 13.1253 29.2178 12.856 29.2178 12.536C29.2178 12.216 29.3271 11.9493 29.5458 11.736C29.7644 11.5227 30.0444 11.416 30.3858 11.416ZM44.0115 15.552L41.0355 24H38.9395L35.9635 15.552H37.8835L40.0275 22.512L42.1795 15.552H44.0115ZM47.6933 20.352C47.7306 20.928 47.8533 21.4 48.0613 21.768C48.2693 22.1307 48.5413 22.3973 48.8773 22.568C49.2186 22.7387 49.5919 22.824 49.9973 22.824C50.4133 22.824 50.7973 22.76 51.1493 22.632C51.5013 22.504 51.8559 22.3227 52.2133 22.088L52.9893 23.16C52.5946 23.48 52.1333 23.736 51.6053 23.928C51.0773 24.12 50.5119 24.216 49.9093 24.216C49.0346 24.216 48.2933 24.0293 47.6853 23.656C47.0826 23.2827 46.6239 22.7627 46.3093 22.096C45.9946 21.4293 45.8372 20.6587 45.8372 19.784C45.8372 18.936 45.9919 18.1787 46.3013 17.512C46.6106 16.84 47.0533 16.3093 47.6293 15.92C48.2053 15.5253 48.8933 15.328 49.6933 15.328C50.4453 15.328 51.0906 15.4987 51.6293 15.84C52.1733 16.1813 52.5919 16.6667 52.8853 17.296C53.1839 17.92 53.3333 18.672 53.3333 19.552C53.3333 19.696 53.3279 19.84 53.3173 19.984C53.3119 20.1227 53.3039 20.2453 53.2933 20.352H47.6933ZM49.7093 16.656C49.1493 16.656 48.6853 16.856 48.3173 17.256C47.9546 17.656 47.7439 18.28 47.6853 19.128H51.5973C51.5813 18.3333 51.4106 17.7227 51.0853 17.296C50.7653 16.8693 50.3066 16.656 49.7093 16.656ZM73.0442 14.384L73.8682 15.68L68.3962 18.984L73.8682 22.288L72.9882 23.576L66.8522 19.752V18.216L73.0442 14.384ZM83.6842 14.384L89.8683 18.208V19.752L83.7323 23.576L82.8522 22.312L88.3323 18.984L82.8522 15.704L83.6842 14.384ZM84.5163 17.696L85.6523 18.24C85.4709 18.6187 85.2576 18.976 85.0123 19.312C84.7723 19.648 84.4843 19.9227 84.1483 20.136C83.8176 20.3493 83.4149 20.456 82.9402 20.456C82.5616 20.456 82.2336 20.376 81.9562 20.216C81.6736 20.056 81.4202 19.8693 81.1962 19.656C80.9669 19.4427 80.7456 19.256 80.5322 19.096C80.3136 18.936 80.0789 18.856 79.8282 18.856C79.5829 18.856 79.3589 18.936 79.1562 19.096C78.9482 19.256 78.7376 19.4427 78.5242 19.656C78.3109 19.8693 78.0709 20.056 77.8042 20.216C77.5322 20.376 77.2069 20.456 76.8282 20.456C76.4496 20.456 76.1216 20.376 75.8442 20.216C75.5616 20.056 75.3082 19.8693 75.0842 19.656C74.8549 19.4427 74.6336 19.256 74.4202 19.096C74.2016 18.936 73.9669 18.856 73.7162 18.856C73.3856 18.856 73.1029 18.9813 72.8682 19.232C72.6282 19.4773 72.4042 19.792 72.1962 20.176L71.0602 19.64C71.2469 19.272 71.4602 18.92 71.7002 18.584C71.9349 18.2427 72.2202 17.9627 72.5562 17.744C72.8922 17.52 73.2976 17.408 73.7722 17.408C74.1722 17.408 74.5136 17.488 74.7962 17.648C75.0789 17.808 75.3322 17.9947 75.5562 18.208C75.7802 18.4213 75.9962 18.608 76.2042 18.768C76.4122 18.928 76.6389 19.008 76.8842 19.008C77.1242 19.008 77.3429 18.928 77.5402 18.768C77.7376 18.608 77.9429 18.4213 78.1562 18.208C78.3642 17.9947 78.6042 17.808 78.8762 17.648C79.1482 17.488 79.4842 17.408 79.8842 17.408C80.2842 17.408 80.6256 17.488 80.9082 17.648C81.1909 17.808 81.4442 17.9947 81.6682 18.208C81.8922 18.4213 82.1082 18.608 82.3162 18.768C82.5242 18.928 82.7509 19.008 82.9962 19.008C83.3163 19.008 83.5963 18.888 83.8363 18.648C84.0816 18.4027 84.3083 18.0853 84.5163 17.696Z" fill="white"/>
    </g>

    <g id="btn-primary-hover">
        <path d="M17.912 24V12.96H19.768V22.448H24.712L24.512 24H17.912ZM31.6338 15.552V22.688H33.9298V24H27.3138V22.688H29.8418V16.864H27.3938V15.552H31.6338ZM30.3858 11.416C30.7378 11.416 31.0204 11.5227 31.2338 11.736C31.4524 11.9493 31.5618 12.216 31.5618 12.536C31.5618 12.856 31.4524 13.1253 31.2338 13.344C31.0204 13.5627 30.7378 13.672 30.3858 13.672C30.0444 13.672 29.7644 13.5627 29.5458 13.344C29.3271 13.1253 29.2178 12.856 29.2178 12.536C29.2178 12.216 29.3271 11.9493 29.5458 11.736C29.7644 11.5227 30.0444 11.416 30.3858 11.416ZM44.0115 15.552L41.0355 24H38.9395L35.9635 15.552H37.8835L40.0275 22.512L42.1795 15.552H44.0115ZM47.6933 20.352C47.7306 20.928 47.8533 21.4 48.0613 21.768C48.2693 22.1307 48.5413 22.3973 48.8773 22.568C49.2186 22.7387 49.5919 22.824 49.9973 22.824C50.4133 22.824 50.7973 22.76 51.1493 22.632C51.5013 22.504 51.8559 22.3227 52.2133 22.088L52.9893 23.16C52.5946 23.48 52.1333 23.736 51.6053 23.928C51.0773 24.12 50.5119 24.216 49.9093 24.216C49.0346 24.216 48.2933 24.0293 47.6853 23.656C47.0826 23.2827 46.6239 22.7627 46.3093 22.096C45.9946 21.4293 45.8372 20.6587 45.8372 19.784C45.8372 18.936 45.9919 18.1787 46.3013 17.512C46.6106 16.84 47.0533 16.3093 47.6293 15.92C48.2053 15.5253 48.8933 15.328 49.6933 15.328C50.4453 15.328 51.0906 15.4987 51.6293 15.84C52.1733 16.1813 52.5919 16.6667 52.8853 17.296C53.1839 17.92 53.3333 18.672 53.3333 19.552C53.3333 19.696 53.3279 19.84 53.3173 19.984C53.3119 20.1227 53.3039 20.2453 53.2933 20.352H47.6933ZM49.7093 16.656C49.1493 16.656 48.6853 16.856 48.3173 17.256C47.9546 17.656 47.7439 18.28 47.6853 19.128H51.5973C51.5813 18.3333 51.4106 17.7227 51.0853 17.296C50.7653 16.8693 50.3066 16.656 49.7093 16.656ZM73.0442 14.384L73.8682 15.68L68.3962 18.984L73.8682 22.288L72.9882 23.576L66.8522 19.752V18.216L73.0442 14.384ZM83.6842 14.384L89.8683 18.208V19.752L83.7323 23.576L82.8522 22.312L88.3323 18.984L82.8522 15.704L83.6842 14.384ZM84.5163 17.696L85.6523 18.24C85.4709 18.6187 85.2576 18.976 85.0123 19.312C84.7723 19.648 84.4843 19.9227 84.1483 20.136C83.8176 20.3493 83.4149 20.456 82.9402 20.456C82.5616 20.456 82.2336 20.376 81.9562 20.216C81.6736 20.056 81.4202 19.8693 81.1962 19.656C80.9669 19.4427 80.7456 19.256 80.5322 19.096C80.3136 18.936 80.0789 18.856 79.8282 18.856C79.5829 18.856 79.3589 18.936 79.1562 19.096C78.9482 19.256 78.7376 19.4427 78.5242 19.656C78.3109 19.8693 78.0709 20.056 77.8042 20.216C77.5322 20.376 77.2069 20.456 76.8282 20.456C76.4496 20.456 76.1216 20.376 75.8442 20.216C75.5616 20.056 75.3082 19.8693 75.0842 19.656C74.8549 19.4427 74.6336 19.256 74.4202 19.096C74.2016 18.936 73.9669 18.856 73.7162 18.856C73.3856 18.856 73.1029 18.9813 72.8682 19.232C72.6282 19.4773 72.4042 19.792 72.1962 20.176L71.0602 19.64C71.2469 19.272 71.4602 18.92 71.7002 18.584C71.9349 18.2427 72.2202 17.9627 72.5562 17.744C72.8922 17.52 73.2976 17.408 73.7722 17.408C74.1722 17.408 74.5136 17.488 74.7962 17.648C75.0789 17.808 75.3322 17.9947 75.5562 18.208C75.7802 18.4213 75.9962 18.608 76.2042 18.768C76.4122 18.928 76.6389 19.008 76.8842 19.008C77.1242 19.008 77.3429 18.928 77.5402 18.768C77.7376 18.608 77.9429 18.4213 78.1562 18.208C78.3642 17.9947 78.6042 17.808 78.8762 17.648C79.1482 17.488 79.4842 17.408 79.8842 17.408C80.2842 17.408 80.6256 17.488 80.9082 17.648C81.1909 17.808 81.4442 17.9947 81.6682 18.208C81.8922 18.4213 82.1082 18.608 82.3162 18.768C82.5242 18.928 82.7509 19.008 82.9962 19.008C83.3163 19.008 83.5963 18.888 83.8363 18.648C84.0816 18.4027 84.3083 18.0853 84.5163 17.696Z" fill="white"/>
    </g>

    <g id="btn-secondary">
        <path d="M23.024 18.424C23.024 17.544 22.936 16.8373 22.76 16.304C22.5893 15.7707 22.3573 15.3653 22.064 15.088C21.776 14.8107 21.4533 14.624 21.096 14.528C20.744 14.432 20.384 14.384 20.016 14.384H19V22.592H20.024C20.408 22.592 20.7787 22.5307 21.136 22.408C21.4933 22.2853 21.8133 22.072 22.096 21.768C22.384 21.464 22.6107 21.0427 22.776 20.504C22.9413 19.96 23.024 19.2667 23.024 18.424ZM24.976 18.424C24.976 19.336 24.8773 20.1147 24.68 20.76C24.488 21.4053 24.2213 21.9413 23.88 22.368C23.544 22.7893 23.1547 23.12 22.712 23.36C22.2747 23.5947 21.8107 23.76 21.32 23.856C20.8293 23.952 20.3387 24 19.848 24H17.144V12.96H19.664C20.336 12.96 20.9867 13.032 21.616 13.176C22.2507 13.32 22.8187 13.5867 23.32 13.976C23.8267 14.3653 24.2293 14.9173 24.528 15.632C24.8267 16.3467 24.976 17.2773 24.976 18.424ZM28.5058 20.352C28.5431 20.928 28.6658 21.4 28.8738 21.768C29.0818 22.1307 29.3538 22.3973 29.6898 22.568C30.0311 22.7387 30.4044 22.824 30.8098 22.824C31.2258 22.824 31.6098 22.76 31.9618 22.632C32.3138 22.504 32.6684 22.3227 33.0258 22.088L33.8018 23.16C33.4071 23.48 32.9458 23.736 32.4178 23.928C31.8898 24.12 31.3244 24.216 30.7218 24.216C29.8471 24.216 29.1058 24.0293 28.4978 23.656C27.8951 23.2827 27.4364 22.7627 27.1218 22.096C26.8071 21.4293 26.6497 20.6587 26.6497 19.784C26.6497 18.936 26.8044 18.1787 27.1138 17.512C27.4231 16.84 27.8658 16.3093 28.4418 15.92C29.0178 15.5253 29.7058 15.328 30.5058 15.328C31.2578 15.328 31.9031 15.4987 32.4418 15.84C32.9858 16.1813 33.4044 16.6667 33.6978 17.296C33.9964 17.92 34.1458 18.672 34.1458 19.552C34.1458 19.696 34.1404 19.84 34.1298 19.984C34.1244 20.1227 34.1164 20.2453 34.1058 20.352H28.5058ZM30.5218 16.656C29.9618 16.656 29.4978 16.856 29.1298 17.256C28.7671 17.656 28.5564 18.28 28.4978 19.128H32.4098C32.3938 18.3333 32.2231 17.7227 31.8978 17.296C31.5778 16.8693 31.1191 16.656 30.5218 16.656ZM42.4355 15.328C42.7555 15.328 43.0435 15.3973 43.2995 15.536C43.5555 15.6747 43.7555 15.9173 43.8995 16.264C44.0488 16.6107 44.1235 17.096 44.1235 17.72V24H42.5315V17.968C42.5315 17.5253 42.4995 17.208 42.4355 17.016C42.3768 16.824 42.2195 16.728 41.9635 16.728C41.7608 16.728 41.5555 16.792 41.3475 16.92C41.1395 17.0427 40.9288 17.256 40.7155 17.56V24H39.2675V17.968C39.2675 17.5253 39.2355 17.208 39.1715 17.016C39.1128 16.824 38.9555 16.728 38.6995 16.728C38.4915 16.728 38.2835 16.792 38.0755 16.92C37.8728 17.0427 37.6648 17.256 37.4515 17.56V24H35.8515V15.552H37.2035L37.3235 16.464C37.5635 16.128 37.8248 15.856 38.1075 15.648C38.3902 15.4347 38.7315 15.328 39.1315 15.328C39.4515 15.328 39.7422 15.408 40.0035 15.568C40.2648 15.728 40.4568 16.008 40.5795 16.408C40.8142 16.088 41.0808 15.8293 41.3795 15.632C41.6782 15.4293 42.0302 15.328 42.4355 15.328ZM49.5893 15.328C50.4159 15.328 51.1119 15.512 51.6773 15.88C52.2426 16.248 52.6693 16.7627 52.9573 17.424C53.2506 18.0853 53.3973 18.864 53.3973 19.76C53.3973 20.6507 53.2479 21.432 52.9493 22.104C52.6559 22.7707 52.2239 23.2907 51.6533 23.664C51.0879 24.032 50.3973 24.216 49.5813 24.216C48.7653 24.216 48.0719 24.0373 47.5013 23.68C46.9359 23.3173 46.5039 22.8027 46.2053 22.136C45.9119 21.4693 45.7653 20.6827 45.7653 19.776C45.7653 18.896 45.9119 18.1227 46.2053 17.456C46.5039 16.7893 46.9386 16.2693 47.5093 15.896C48.0799 15.5173 48.7733 15.328 49.5893 15.328ZM49.5893 16.72C48.9439 16.72 48.4586 16.968 48.1333 17.464C47.8079 17.9547 47.6453 18.7253 47.6453 19.776C47.6453 20.8213 47.8053 21.592 48.1253 22.088C48.4506 22.584 48.9359 22.832 49.5813 22.832C50.2266 22.832 50.7093 22.584 51.0293 22.088C51.3546 21.592 51.5173 20.816 51.5173 19.76C51.5173 18.72 51.3573 17.9547 51.0373 17.464C50.7173 16.968 50.2346 16.72 49.5893 16.72ZM69.9945 12.616L79.1145 18.208V19.752L69.9945 25.408H68.4905V12.616H69.9945ZM69.9945 23.592L77.5705 18.984L69.9945 14.44V23.592Z" fill="#ABB2BF"/>
    </g>

    <g id="btn-secondary-hover">
        <path d="M23.024 18.424C23.024 17.544 22.936 16.8373 22.76 16.304C22.5893 15.7707 22.3573 15.3653 22.064 15.088C21.776 14.8107 21.4533 14.624 21.096 14.528C20.744 14.432 20.384 14.384 20.016 14.384H19V22.592H20.024C20.408 22.592 20.7787 22.5307 21.136 22.408C21.4933 22.2853 21.8133 22.072 22.096 21.768C22.384 21.464 22.6107 21.0427 22.776 20.504C22.9413 19.96 23.024 19.2667 23.024 18.424ZM24.976 18.424C24.976 19.336 24.8773 20.1147 24.68 20.76C24.488 21.4053 24.2213 21.9413 23.88 22.368C23.544 22.7893 23.1547 23.12 22.712 23.36C22.2747 23.5947 21.8107 23.76 21.32 23.856C20.8293 23.952 20.3387 24 19.848 24H17.144V12.96H19.664C20.336 12.96 20.9867 13.032 21.616 13.176C22.2507 13.32 22.8187 13.5867 23.32 13.976C23.8267 14.3653 24.2293 14.9173 24.528 15.632C24.8267 16.3467 24.976 17.2773 24.976 18.424ZM28.5058 20.352C28.5431 20.928 28.6658 21.4 28.8738 21.768C29.0818 22.1307 29.3538 22.3973 29.6898 22.568C30.0311 22.7387 30.4044 22.824 30.8098 22.824C31.2258 22.824 31.6098 22.76 31.9618 22.632C32.3138 22.504 32.6684 22.3227 33.0258 22.088L33.8018 23.16C33.4071 23.48 32.9458 23.736 32.4178 23.928C31.8898 24.12 31.3244 24.216 30.7218 24.216C29.8471 24.216 29.1058 24.0293 28.4978 23.656C27.8951 23.2827 27.4364 22.7627 27.1218 22.096C26.8071 21.4293 26.6497 20.6587 26.6497 19.784C26.6497 18.936 26.8044 18.1787 27.1138 17.512C27.4231 16.84 27.8658 16.3093 28.4418 15.92C29.0178 15.5253 29.7058 15.328 30.5058 15.328C31.2578 15.328 31.9031 15.4987 32.4418 15.84C32.9858 16.1813 33.4044 16.6667 33.6978 17.296C33.9964 17.92 34.1458 18.672 34.1458 19.552C34.1458 19.696 34.1404 19.84 34.1298 19.984C34.1244 20.1227 34.1164 20.2453 34.1058 20.352H28.5058ZM30.5218 16.656C29.9618 16.656 29.4978 16.856 29.1298 17.256C28.7671 17.656 28.5564 18.28 28.4978 19.128H32.4098C32.3938 18.3333 32.2231 17.7227 31.8978 17.296C31.5778 16.8693 31.1191 16.656 30.5218 16.656ZM42.4355 15.328C42.7555 15.328 43.0435 15.3973 43.2995 15.536C43.5555 15.6747 43.7555 15.9173 43.8995 16.264C44.0488 16.6107 44.1235 17.096 44.1235 17.72V24H42.5315V17.968C42.5315 17.5253 42.4995 17.208 42.4355 17.016C42.3768 16.824 42.2195 16.728 41.9635 16.728C41.7608 16.728 41.5555 16.792 41.3475 16.92C41.1395 17.0427 40.9288 17.256 40.7155 17.56V24H39.2675V17.968C39.2675 17.5253 39.2355 17.208 39.1715 17.016C39.1128 16.824 38.9555 16.728 38.6995 16.728C38.4915 16.728 38.2835 16.792 38.0755 16.92C37.8728 17.0427 37.6648 17.256 37.4515 17.56V24H35.8515V15.552H37.2035L37.3235 16.464C37.5635 16.128 37.8248 15.856 38.1075 15.648C38.3902 15.4347 38.7315 15.328 39.1315 15.328C39.4515 15.328 39.7422 15.408 40.0035 15.568C40.2648 15.728 40.4568 16.008 40.5795 16.408C40.8142 16.088 41.0808 15.8293 41.3795 15.632C41.6782 15.4293 42.0302 15.328 42.4355 15.328ZM49.5893 15.328C50.4159 15.328 51.1119 15.512 51.6773 15.88C52.2426 16.248 52.6693 16.7627 52.9573 17.424C53.2506 18.0853 53.3973 18.864 53.3973 19.76C53.3973 20.6507 53.2479 21.432 52.9493 22.104C52.6559 22.7707 52.2239 23.2907 51.6533 23.664C51.0879 24.032 50.3973 24.216 49.5813 24.216C48.7653 24.216 48.0719 24.0373 47.5013 23.68C46.9359 23.3173 46.5039 22.8027 46.2053 22.136C45.9119 21.4693 45.7653 20.6827 45.7653 19.776C45.7653 18.896 45.9119 18.1227 46.2053 17.456C46.5039 16.7893 46.9386 16.2693 47.5093 15.896C48.0799 15.5173 48.7733 15.328 49.5893 15.328ZM49.5893 16.72C48.9439 16.72 48.4586 16.968 48.1333 17.464C47.8079 17.9547 47.6453 18.7253 47.6453 19.776C47.6453 20.8213 47.8053 21.592 48.1253 22.088C48.4506 22.584 48.9359 22.832 49.5813 22.832C50.2266 22.832 50.7093 22.584 51.0293 22.088C51.3546 21.592 51.5173 20.816 51.5173 19.76C51.5173 18.72 51.3573 17.9547 51.0373 17.464C50.7173 16.968 50.2346 16.72 49.5893 16.72ZM69.9945 12.616L79.1145 18.208V19.752L69.9945 25.408H68.4905V12.616H69.9945ZM69.9945 23.592L77.5705 18.984L69.9945 14.44V23.592Z" fill="#ABB2BF"/>
    </g>


<!--  input -->

    <g id="input">
        <path d="M14.32 24L10.44 14.312C10.4453 14.4347 10.456 14.64 10.472 14.928C10.4933 15.2107 10.5147 15.5493 10.536 15.944C10.5627 16.3333 10.584 16.7467 10.6 17.184C10.616 17.6213 10.624 18.0533 10.624 18.48V24H9.336V12.984H11.216L15.16 22.712C15.1547 22.5573 15.136 22.2747 15.104 21.864C15.072 21.448 15.0427 20.9467 15.016 20.36C14.9893 19.7733 14.976 19.152 14.976 18.496V12.984H16.264V24H14.32ZM25.2338 22.16C25.2338 22.496 25.2898 22.7413 25.4018 22.896C25.5138 23.0507 25.6871 23.1653 25.9218 23.24L25.5938 24.184C25.2311 24.136 24.9138 24.0213 24.6418 23.84C24.3698 23.6533 24.1724 23.3733 24.0498 23C23.7458 23.3893 23.3671 23.6853 22.9138 23.888C22.4604 24.0853 21.9591 24.184 21.4098 24.184C20.5671 24.184 19.9031 23.9467 19.4178 23.472C18.9324 22.9973 18.6898 22.368 18.6898 21.584C18.6898 20.7147 19.0284 20.048 19.7057 19.584C20.3831 19.12 21.3618 18.888 22.6418 18.888H23.8818V18.184C23.8818 17.576 23.7031 17.1467 23.3458 16.896C22.9938 16.64 22.5031 16.512 21.8738 16.512C21.5964 16.512 21.2711 16.5467 20.8978 16.616C20.5244 16.68 20.1191 16.7893 19.6818 16.944L19.3298 15.928C19.8471 15.736 20.3324 15.6 20.7858 15.52C21.2391 15.44 21.6711 15.4 22.0818 15.4C23.1324 15.4 23.9191 15.6453 24.4418 16.136C24.9698 16.6213 25.2338 17.2827 25.2338 18.12V22.16ZM21.7538 23.16C22.1698 23.16 22.5671 23.056 22.9458 22.848C23.3244 22.6347 23.6364 22.3413 23.8818 21.968V19.8H22.6658C21.7378 19.8 21.0818 19.96 20.6978 20.28C20.3191 20.6 20.1298 21.0293 20.1298 21.568C20.1298 22.0907 20.2631 22.488 20.5298 22.76C20.8018 23.0267 21.2098 23.16 21.7538 23.16ZM34.3475 15.4C34.6195 15.4 34.8782 15.4587 35.1235 15.576C35.3742 15.6933 35.5795 15.92 35.7395 16.256C35.8995 16.592 35.9795 17.0827 35.9795 17.728V24H34.7315V17.944C34.7315 17.416 34.6995 17.0347 34.6355 16.8C34.5715 16.5653 34.3875 16.448 34.0835 16.448C33.8328 16.448 33.5822 16.528 33.3315 16.688C33.0862 16.8427 32.8462 17.0987 32.6115 17.456V24H31.3555V17.944C31.3555 17.416 31.3235 17.0347 31.2595 16.8C31.1955 16.5653 31.0115 16.448 30.7075 16.448C30.4462 16.448 30.1928 16.528 29.9475 16.688C29.7075 16.8427 29.4702 17.0987 29.2355 17.456V24H27.9955V15.576H29.0515L29.1315 16.552C29.3608 16.2267 29.6168 15.9547 29.8995 15.736C30.1875 15.512 30.5422 15.4 30.9635 15.4C31.2835 15.4 31.5848 15.4773 31.8675 15.632C32.1502 15.7813 32.3582 16.0747 32.4915 16.512C32.7208 16.1813 32.9795 15.9147 33.2675 15.712C33.5555 15.504 33.9155 15.4 34.3475 15.4ZM39.4453 20.264C39.4719 20.9147 39.5973 21.448 39.8213 21.864C40.0453 22.2747 40.3413 22.5787 40.7093 22.776C41.0773 22.968 41.4773 23.064 41.9093 23.064C42.3413 23.064 42.7306 23 43.0773 22.872C43.4293 22.744 43.7893 22.5547 44.1573 22.304L44.7893 23.192C44.3946 23.5013 43.9439 23.744 43.4373 23.92C42.9359 24.096 42.4213 24.184 41.8933 24.184C41.0773 24.184 40.3813 24 39.8053 23.632C39.2293 23.264 38.7893 22.752 38.4853 22.096C38.1866 21.4347 38.0373 20.6693 38.0373 19.8C38.0373 18.9467 38.1893 18.1893 38.4933 17.528C38.7973 16.8667 39.2239 16.3467 39.7733 15.968C40.3226 15.5893 40.9706 15.4 41.7173 15.4C42.4266 15.4 43.0373 15.568 43.5493 15.904C44.0613 16.2347 44.4533 16.7093 44.7253 17.328C45.0026 17.9413 45.1413 18.6747 45.1413 19.528C45.1413 19.672 45.1386 19.808 45.1333 19.936C45.1279 20.0587 45.1199 20.168 45.1093 20.264H39.4453ZM41.7333 16.504C41.1093 16.504 40.5866 16.7253 40.1653 17.168C39.7493 17.6107 39.5119 18.296 39.4533 19.224H43.8453C43.8293 18.3227 43.6319 17.6453 43.2533 17.192C42.8746 16.7333 42.3679 16.504 41.7333 16.504Z" fill="#ABB2BF"/>
    </g>

    <g id="input-hover">
        <path d="M19.32 16L15.44 6.312C15.4453 6.43467 15.456 6.64 15.472 6.928C15.4933 7.21067 15.5147 7.54933 15.536 7.944C15.5627 8.33333 15.584 8.74667 15.6 9.184C15.616 9.62133 15.624 10.0533 15.624 10.48V16H14.336V4.984H16.216L20.16 14.712C20.1547 14.5573 20.136 14.2747 20.104 13.864C20.072 13.448 20.0427 12.9467 20.016 12.36C19.9893 11.7733 19.976 11.152 19.976 10.496V4.984H21.264V16H19.32ZM30.2338 14.16C30.2338 14.496 30.2898 14.7413 30.4018 14.896C30.5138 15.0507 30.6871 15.1653 30.9218 15.24L30.5938 16.184C30.2311 16.136 29.9138 16.0213 29.6418 15.84C29.3698 15.6533 29.1724 15.3733 29.0498 15C28.7458 15.3893 28.3671 15.6853 27.9138 15.888C27.4604 16.0853 26.9591 16.184 26.4098 16.184C25.5671 16.184 24.9031 15.9467 24.4178 15.472C23.9324 14.9973 23.6898 14.368 23.6898 13.584C23.6898 12.7147 24.0284 12.048 24.7057 11.584C25.3831 11.12 26.3618 10.888 27.6418 10.888H28.8818V10.184C28.8818 9.576 28.7031 9.14667 28.3458 8.896C27.9938 8.64 27.5031 8.512 26.8738 8.512C26.5964 8.512 26.2711 8.54667 25.8978 8.616C25.5244 8.68 25.1191 8.78933 24.6818 8.944L24.3298 7.928C24.8471 7.736 25.3324 7.6 25.7858 7.52C26.2391 7.44 26.6711 7.4 27.0818 7.4C28.1324 7.4 28.9191 7.64533 29.4418 8.136C29.9698 8.62133 30.2338 9.28267 30.2338 10.12V14.16ZM26.7538 15.16C27.1698 15.16 27.5671 15.056 27.9458 14.848C28.3244 14.6347 28.6364 14.3413 28.8818 13.968V11.8H27.6658C26.7378 11.8 26.0818 11.96 25.6978 12.28C25.3191 12.6 25.1298 13.0293 25.1298 13.568C25.1298 14.0907 25.2631 14.488 25.5298 14.76C25.8018 15.0267 26.2098 15.16 26.7538 15.16ZM39.3475 7.4C39.6195 7.4 39.8782 7.45867 40.1235 7.576C40.3742 7.69333 40.5795 7.92 40.7395 8.256C40.8995 8.592 40.9795 9.08267 40.9795 9.728V16H39.7315V9.944C39.7315 9.416 39.6995 9.03467 39.6355 8.8C39.5715 8.56533 39.3875 8.448 39.0835 8.448C38.8328 8.448 38.5822 8.528 38.3315 8.688C38.0862 8.84267 37.8462 9.09867 37.6115 9.456V16H36.3555V9.944C36.3555 9.416 36.3235 9.03467 36.2595 8.8C36.1955 8.56533 36.0115 8.448 35.7075 8.448C35.4462 8.448 35.1928 8.528 34.9475 8.688C34.7075 8.84267 34.4702 9.09867 34.2355 9.456V16H32.9955V7.576H34.0515L34.1315 8.552C34.3608 8.22667 34.6168 7.95467 34.8995 7.736C35.1875 7.512 35.5422 7.4 35.9635 7.4C36.2835 7.4 36.5848 7.47733 36.8675 7.632C37.1502 7.78133 37.3582 8.07467 37.4915 8.512C37.7208 8.18133 37.9795 7.91467 38.2675 7.712C38.5555 7.504 38.9155 7.4 39.3475 7.4ZM44.4453 12.264C44.4719 12.9147 44.5973 13.448 44.8213 13.864C45.0453 14.2747 45.3413 14.5787 45.7093 14.776C46.0773 14.968 46.4773 15.064 46.9093 15.064C47.3413 15.064 47.7306 15 48.0773 14.872C48.4293 14.744 48.7893 14.5547 49.1573 14.304L49.7893 15.192C49.3946 15.5013 48.9439 15.744 48.4373 15.92C47.9359 16.096 47.4213 16.184 46.8933 16.184C46.0773 16.184 45.3813 16 44.8053 15.632C44.2293 15.264 43.7893 14.752 43.4853 14.096C43.1866 13.4347 43.0373 12.6693 43.0373 11.8C43.0373 10.9467 43.1893 10.1893 43.4933 9.528C43.7973 8.86667 44.2239 8.34667 44.7733 7.968C45.3226 7.58933 45.9706 7.4 46.7173 7.4C47.4266 7.4 48.0373 7.568 48.5493 7.904C49.0613 8.23467 49.4533 8.70933 49.7253 9.328C50.0026 9.94133 50.1413 10.6747 50.1413 11.528C50.1413 11.672 50.1386 11.808 50.1333 11.936C50.1279 12.0587 50.1199 12.168 50.1093 12.264H44.4453ZM46.7333 8.504C46.1093 8.504 45.5866 8.72533 45.1653 9.168C44.7493 9.61067 44.5119 10.296 44.4533 11.224H48.8453C48.8293 10.3227 48.6319 9.64533 48.2533 9.192C47.8746 8.73333 47.3679 8.504 46.7333 8.504Z" fill="white"/>
    </g>


<!--    header link -->

    <g id="header-link">
        <path d="M7.336 8.704L6.864 12.248H8.16V13.288H6.712L6.376 16H5.224L5.584 13.288H3.256L2.904 16H1.752L2.112 13.288H0.848V12.248H2.248L2.736 8.704H1.44V7.656H2.872L3.224 4.984H4.376L3.992 7.656H6.344L6.696 4.984H7.848L7.472 7.656H8.752V8.704H7.336ZM3.392 12.248H5.72L6.208 8.704H3.864L3.392 12.248Z" fill="#C778DD"/>
        <path d="M12.952 4.056V8.728C13.2827 8.28533 13.688 7.95467 14.168 7.736C14.6533 7.512 15.144 7.4 15.64 7.4C16.4613 7.4 17.0613 7.61867 17.44 8.056C17.8187 8.49333 18.008 9.10133 18.008 9.88V16H16.664V9.912C16.664 9.40533 16.5467 9.03733 16.312 8.808C16.0773 8.57333 15.7093 8.456 15.208 8.456C14.888 8.456 14.584 8.528 14.296 8.672C14.008 8.816 13.7493 8.99467 13.52 9.208C13.2907 9.42133 13.1013 9.64 12.952 9.864V16H11.608V4.2L12.952 4.056ZM24.4098 7.4C25.2044 7.4 25.8684 7.58133 26.4018 7.944C26.9404 8.30133 27.3431 8.808 27.6098 9.464C27.8818 10.12 28.0178 10.8933 28.0178 11.784C28.0178 12.6427 27.8791 13.4027 27.6018 14.064C27.3244 14.7253 26.9164 15.2453 26.3778 15.624C25.8444 15.9973 25.1831 16.184 24.3938 16.184C23.6044 16.184 22.9404 16.0027 22.4018 15.64C21.8631 15.2773 21.4551 14.768 21.1778 14.112C20.9058 13.4507 20.7697 12.68 20.7697 11.8C20.7697 10.9307 20.9084 10.1653 21.1858 9.504C21.4631 8.84267 21.8711 8.328 22.4098 7.96C22.9538 7.58667 23.6204 7.4 24.4098 7.4ZM24.4098 8.496C23.6844 8.496 23.1351 8.76533 22.7618 9.304C22.3938 9.83733 22.2098 10.6693 22.2098 11.8C22.2098 12.9093 22.3911 13.7333 22.7538 14.272C23.1218 14.8107 23.6684 15.08 24.3938 15.08C25.1191 15.08 25.6631 14.8107 26.0258 14.272C26.3938 13.7333 26.5778 12.904 26.5778 11.784C26.5778 10.664 26.3964 9.83733 26.0338 9.304C25.6711 8.76533 25.1298 8.496 24.4098 8.496ZM36.3475 7.4C36.6195 7.4 36.8782 7.45867 37.1235 7.576C37.3742 7.69333 37.5795 7.92 37.7395 8.256C37.8995 8.592 37.9795 9.08267 37.9795 9.728V16H36.7315V9.944C36.7315 9.416 36.6995 9.03467 36.6355 8.8C36.5715 8.56533 36.3875 8.448 36.0835 8.448C35.8328 8.448 35.5822 8.528 35.3315 8.688C35.0862 8.84267 34.8462 9.09867 34.6115 9.456V16H33.3555V9.944C33.3555 9.416 33.3235 9.03467 33.2595 8.8C33.1955 8.56533 33.0115 8.448 32.7075 8.448C32.4462 8.448 32.1928 8.528 31.9475 8.688C31.7075 8.84267 31.4702 9.09867 31.2355 9.456V16H29.9955V7.576H31.0515L31.1315 8.552C31.3608 8.22667 31.6168 7.95467 31.8995 7.736C32.1875 7.512 32.5422 7.4 32.9635 7.4C33.2835 7.4 33.5848 7.47733 33.8675 7.632C34.1502 7.78133 34.3582 8.07467 34.4915 8.512C34.7208 8.18133 34.9795 7.91467 35.2675 7.712C35.5555 7.504 35.9155 7.4 36.3475 7.4ZM41.4453 12.264C41.4719 12.9147 41.5973 13.448 41.8213 13.864C42.0453 14.2747 42.3413 14.5787 42.7093 14.776C43.0773 14.968 43.4773 15.064 43.9093 15.064C44.3413 15.064 44.7306 15 45.0773 14.872C45.4293 14.744 45.7893 14.5547 46.1573 14.304L46.7893 15.192C46.3946 15.5013 45.9439 15.744 45.4373 15.92C44.9359 16.096 44.4213 16.184 43.8933 16.184C43.0773 16.184 42.3813 16 41.8053 15.632C41.2293 15.264 40.7893 14.752 40.4853 14.096C40.1866 13.4347 40.0373 12.6693 40.0373 11.8C40.0373 10.9467 40.1893 10.1893 40.4933 9.528C40.7973 8.86667 41.2239 8.34667 41.7733 7.968C42.3226 7.58933 42.9706 7.4 43.7173 7.4C44.4266 7.4 45.0373 7.568 45.5493 7.904C46.0613 8.23467 46.4533 8.70933 46.7253 9.328C47.0026 9.94133 47.1413 10.6747 47.1413 11.528C47.1413 11.672 47.1386 11.808 47.1333 11.936C47.1279 12.0587 47.1199 12.168 47.1093 12.264H41.4453ZM43.7333 8.504C43.1093 8.504 42.5866 8.72533 42.1653 9.168C41.7493 9.61067 41.5119 10.296 41.4533 11.224H45.8453C45.8293 10.3227 45.6319 9.64533 45.2533 9.192C44.8746 8.73333 44.3679 8.504 43.7333 8.504Z" fill="#ABB2BF"/>
    </g>

    <g id="header-link-hover">
        <path d="M7.336 8.704L6.864 12.248H8.16V13.288H6.712L6.376 16H5.224L5.584 13.288H3.256L2.904 16H1.752L2.112 13.288H0.848V12.248H2.248L2.736 8.704H1.44V7.656H2.872L3.224 4.984H4.376L3.992 7.656H6.344L6.696 4.984H7.848L7.472 7.656H8.752V8.704H7.336ZM3.392 12.248H5.72L6.208 8.704H3.864L3.392 12.248Z" fill="#C778DD"/>
        <path d="M12.952 4.056V8.728C13.2827 8.28533 13.688 7.95467 14.168 7.736C14.6533 7.512 15.144 7.4 15.64 7.4C16.4613 7.4 17.0613 7.61867 17.44 8.056C17.8187 8.49333 18.008 9.10133 18.008 9.88V16H16.664V9.912C16.664 9.40533 16.5467 9.03733 16.312 8.808C16.0773 8.57333 15.7093 8.456 15.208 8.456C14.888 8.456 14.584 8.528 14.296 8.672C14.008 8.816 13.7493 8.99467 13.52 9.208C13.2907 9.42133 13.1013 9.64 12.952 9.864V16H11.608V4.2L12.952 4.056ZM24.4098 7.4C25.2044 7.4 25.8684 7.58133 26.4018 7.944C26.9404 8.30133 27.3431 8.808 27.6098 9.464C27.8818 10.12 28.0178 10.8933 28.0178 11.784C28.0178 12.6427 27.8791 13.4027 27.6018 14.064C27.3244 14.7253 26.9164 15.2453 26.3778 15.624C25.8444 15.9973 25.1831 16.184 24.3938 16.184C23.6044 16.184 22.9404 16.0027 22.4018 15.64C21.8631 15.2773 21.4551 14.768 21.1778 14.112C20.9058 13.4507 20.7697 12.68 20.7697 11.8C20.7697 10.9307 20.9084 10.1653 21.1858 9.504C21.4631 8.84267 21.8711 8.328 22.4098 7.96C22.9538 7.58667 23.6204 7.4 24.4098 7.4ZM24.4098 8.496C23.6844 8.496 23.1351 8.76533 22.7618 9.304C22.3938 9.83733 22.2098 10.6693 22.2098 11.8C22.2098 12.9093 22.3911 13.7333 22.7538 14.272C23.1218 14.8107 23.6684 15.08 24.3938 15.08C25.1191 15.08 25.6631 14.8107 26.0258 14.272C26.3938 13.7333 26.5778 12.904 26.5778 11.784C26.5778 10.664 26.3964 9.83733 26.0338 9.304C25.6711 8.76533 25.1298 8.496 24.4098 8.496ZM36.3475 7.4C36.6195 7.4 36.8782 7.45867 37.1235 7.576C37.3742 7.69333 37.5795 7.92 37.7395 8.256C37.8995 8.592 37.9795 9.08267 37.9795 9.728V16H36.7315V9.944C36.7315 9.416 36.6995 9.03467 36.6355 8.8C36.5715 8.56533 36.3875 8.448 36.0835 8.448C35.8328 8.448 35.5822 8.528 35.3315 8.688C35.0862 8.84267 34.8462 9.09867 34.6115 9.456V16H33.3555V9.944C33.3555 9.416 33.3235 9.03467 33.2595 8.8C33.1955 8.56533 33.0115 8.448 32.7075 8.448C32.4462 8.448 32.1928 8.528 31.9475 8.688C31.7075 8.84267 31.4702 9.09867 31.2355 9.456V16H29.9955V7.576H31.0515L31.1315 8.552C31.3608 8.22667 31.6168 7.95467 31.8995 7.736C32.1875 7.512 32.5422 7.4 32.9635 7.4C33.2835 7.4 33.5848 7.47733 33.8675 7.632C34.1502 7.78133 34.3582 8.07467 34.4915 8.512C34.7208 8.18133 34.9795 7.91467 35.2675 7.712C35.5555 7.504 35.9155 7.4 36.3475 7.4ZM41.4453 12.264C41.4719 12.9147 41.5973 13.448 41.8213 13.864C42.0453 14.2747 42.3413 14.5787 42.7093 14.776C43.0773 14.968 43.4773 15.064 43.9093 15.064C44.3413 15.064 44.7306 15 45.0773 14.872C45.4293 14.744 45.7893 14.5547 46.1573 14.304L46.7893 15.192C46.3946 15.5013 45.9439 15.744 45.4373 15.92C44.9359 16.096 44.4213 16.184 43.8933 16.184C43.0773 16.184 42.3813 16 41.8053 15.632C41.2293 15.264 40.7893 14.752 40.4853 14.096C40.1866 13.4347 40.0373 12.6693 40.0373 11.8C40.0373 10.9467 40.1893 10.1893 40.4933 9.528C40.7973 8.86667 41.2239 8.34667 41.7733 7.968C42.3226 7.58933 42.9706 7.4 43.7173 7.4C44.4266 7.4 45.0373 7.568 45.5493 7.904C46.0613 8.23467 46.4533 8.70933 46.7253 9.328C47.0026 9.94133 47.1413 10.6747 47.1413 11.528C47.1413 11.672 47.1386 11.808 47.1333 11.936C47.1279 12.0587 47.1199 12.168 47.1093 12.264H41.4453ZM43.7333 8.504C43.1093 8.504 42.5866 8.72533 42.1653 9.168C41.7493 9.61067 41.5119 10.296 41.4533 11.224H45.8453C45.8293 10.3227 45.6319 9.64533 45.2533 9.192C44.8746 8.73333 44.3679 8.504 43.7333 8.504Z" fill="white"/>
    </g>

    <g id="header-link-active">
        <path d="M7.536 8.76L7.088 12.16H8.272V13.44H6.912L6.584 16H5.08L5.416 13.44H3.392L3.056 16H1.552L1.888 13.44H0.744V12.16H2.056L2.52 8.76H1.336V7.472H2.688L3.016 4.96H4.528L4.176 7.472H6.208L6.544 4.96H8.048L7.704 7.472H8.864V8.76H7.536ZM3.56 12.16H5.584L6.04 8.76H4.008L3.56 12.16Z" fill="#C778DD"/>
        <path d="M13.216 3.984V8.584C13.5573 8.168 13.9573 7.856 14.416 7.648C14.8747 7.43467 15.3467 7.328 15.832 7.328C16.6267 7.328 17.2187 7.54933 17.608 7.992C17.9973 8.42933 18.192 9.04533 18.192 9.84V16H16.4V10.12C16.4 9.61333 16.304 9.25067 16.112 9.032C15.92 8.808 15.6107 8.696 15.184 8.696C14.9173 8.696 14.6613 8.75733 14.416 8.88C14.176 8.99733 13.952 9.152 13.744 9.344C13.5413 9.536 13.3653 9.74133 13.216 9.96V16H11.424V4.176L13.216 3.984ZM24.4018 7.328C25.2284 7.328 25.9244 7.512 26.4898 7.88C27.0551 8.248 27.4818 8.76267 27.7698 9.424C28.0631 10.0853 28.2098 10.864 28.2098 11.76C28.2098 12.6507 28.0604 13.432 27.7618 14.104C27.4684 14.7707 27.0364 15.2907 26.4658 15.664C25.9004 16.032 25.2098 16.216 24.3938 16.216C23.5778 16.216 22.8844 16.0373 22.3138 15.68C21.7484 15.3173 21.3164 14.8027 21.0178 14.136C20.7244 13.4693 20.5778 12.6827 20.5778 11.776C20.5778 10.896 20.7244 10.1227 21.0178 9.456C21.3164 8.78933 21.7511 8.26933 22.3218 7.896C22.8924 7.51733 23.5858 7.328 24.4018 7.328ZM24.4018 8.72C23.7564 8.72 23.2711 8.968 22.9458 9.464C22.6204 9.95467 22.4578 10.7253 22.4578 11.776C22.4578 12.8213 22.6178 13.592 22.9378 14.088C23.2631 14.584 23.7484 14.832 24.3938 14.832C25.0391 14.832 25.5218 14.584 25.8418 14.088C26.1671 13.592 26.3298 12.816 26.3298 11.76C26.3298 10.72 26.1698 9.95467 25.8498 9.464C25.5298 8.968 25.0471 8.72 24.4018 8.72ZM36.4355 7.328C36.7555 7.328 37.0435 7.39733 37.2995 7.536C37.5555 7.67467 37.7555 7.91733 37.8995 8.264C38.0488 8.61067 38.1235 9.096 38.1235 9.72V16H36.5315V9.968C36.5315 9.52533 36.4995 9.208 36.4355 9.016C36.3768 8.824 36.2195 8.728 35.9635 8.728C35.7608 8.728 35.5555 8.792 35.3475 8.92C35.1395 9.04267 34.9288 9.256 34.7155 9.56V16H33.2675V9.968C33.2675 9.52533 33.2355 9.208 33.1715 9.016C33.1128 8.824 32.9555 8.728 32.6995 8.728C32.4915 8.728 32.2835 8.792 32.0755 8.92C31.8728 9.04267 31.6648 9.256 31.4515 9.56V16H29.8515V7.552H31.2035L31.3235 8.464C31.5635 8.128 31.8248 7.856 32.1075 7.648C32.3902 7.43467 32.7315 7.328 33.1315 7.328C33.4515 7.328 33.7422 7.408 34.0035 7.568C34.2648 7.728 34.4568 8.008 34.5795 8.408C34.8142 8.088 35.0808 7.82933 35.3795 7.632C35.6782 7.42933 36.0302 7.328 36.4355 7.328ZM41.6933 12.352C41.7306 12.928 41.8533 13.4 42.0613 13.768C42.2693 14.1307 42.5413 14.3973 42.8773 14.568C43.2186 14.7387 43.5919 14.824 43.9973 14.824C44.4133 14.824 44.7973 14.76 45.1493 14.632C45.5013 14.504 45.8559 14.3227 46.2133 14.088L46.9893 15.16C46.5946 15.48 46.1333 15.736 45.6053 15.928C45.0773 16.12 44.5119 16.216 43.9093 16.216C43.0346 16.216 42.2933 16.0293 41.6853 15.656C41.0826 15.2827 40.6239 14.7627 40.3093 14.096C39.9946 13.4293 39.8372 12.6587 39.8372 11.784C39.8372 10.936 39.9919 10.1787 40.3013 9.512C40.6106 8.84 41.0533 8.30933 41.6293 7.92C42.2053 7.52533 42.8933 7.328 43.6933 7.328C44.4453 7.328 45.0906 7.49867 45.6293 7.84C46.1733 8.18133 46.5919 8.66667 46.8853 9.296C47.1839 9.92 47.3333 10.672 47.3333 11.552C47.3333 11.696 47.3279 11.84 47.3173 11.984C47.3119 12.1227 47.3039 12.2453 47.2933 12.352H41.6933ZM43.7093 8.656C43.1493 8.656 42.6853 8.856 42.3173 9.256C41.9546 9.656 41.7439 10.28 41.6853 11.128H45.5973C45.5813 10.3333 45.4106 9.72267 45.0853 9.296C44.7653 8.86933 44.3066 8.656 43.7093 8.656Z" fill="white"/>
    </g>

<!--  media  -->

    <g id="media">
        <path d="M11.2249 26C19.9045 26 24.6526 18.6883 24.6526 12.3587C24.6526 12.1541 24.6526 11.9466 24.6439 11.742C25.5683 11.0617 26.3661 10.2194 27 9.25459C26.1365 9.64165 25.2215 9.89676 24.2846 10.0116C25.2715 9.41189 26.0106 8.46827 26.3646 7.35615C25.4374 7.91461 24.4226 8.30664 23.3646 8.51509C22.6533 7.74493 21.712 7.23473 20.6866 7.0635C19.6612 6.89228 18.6089 7.06959 17.6927 7.56797C16.7764 8.06635 16.0474 8.85799 15.6185 9.82026C15.1896 10.7825 15.0848 11.8617 15.3203 12.8907C13.444 12.795 11.6084 12.2995 9.93262 11.4362C8.25682 10.5728 6.77823 9.36104 5.59275 7.87935C4.99093 8.93611 4.80726 10.1861 5.07905 11.3756C5.35085 12.565 6.05772 13.6047 7.05612 14.2835C6.30796 14.2576 5.57625 14.0534 4.92 13.6872V13.753C4.92129 14.86 5.2985 15.9326 5.98788 16.7895C6.67726 17.6464 7.63651 18.2351 8.7035 18.4559C8.2985 18.5694 7.88014 18.6259 7.46006 18.624C7.16391 18.6249 6.86836 18.597 6.57744 18.5407C6.87901 19.4937 7.46621 20.3269 8.25679 20.9236C9.04738 21.5203 10.0018 21.8507 10.9863 21.8685C9.3138 23.2039 7.24789 23.9282 5.12125 23.9247C4.74652 23.9263 4.37206 23.9044 4 23.859C6.15843 25.258 8.66512 26.0008 11.2249 26Z" fill="#ABB2BF"/>
        <path d="M41.536 10.308C42.3627 10.308 43.0587 10.4333 43.624 10.684C44.1947 10.9293 44.6587 11.268 45.016 11.7C45.3787 12.132 45.656 12.6333 45.848 13.204C46.0453 13.7693 46.1813 14.372 46.256 15.012C46.3307 15.6467 46.368 16.292 46.368 16.948C46.368 18.292 46.304 19.4093 46.176 20.3C46.0533 21.1853 45.824 21.8467 45.488 22.284C45.152 22.7267 44.6613 22.948 44.016 22.948C43.6853 22.948 43.4 22.868 43.16 22.708C42.92 22.548 42.7227 22.3453 42.568 22.1C42.4133 21.86 42.3013 21.612 42.232 21.356C42.1627 21.0947 42.1307 20.868 42.136 20.676H42.072C41.976 20.9213 41.8373 21.164 41.656 21.404C41.48 21.6387 41.248 21.8333 40.96 21.988C40.672 22.148 40.3147 22.228 39.888 22.228C39.3067 22.228 38.8373 22.0707 38.48 21.756C38.128 21.4413 37.872 21.0067 37.712 20.452C37.552 19.8973 37.472 19.268 37.472 18.564C37.472 17.172 37.7493 16.1373 38.304 15.46C38.8587 14.7773 39.6267 14.436 40.608 14.436C40.9813 14.436 41.3387 14.476 41.68 14.556C42.0213 14.636 42.416 14.796 42.864 15.036V19.764C42.864 20.34 42.9147 20.78 43.016 21.084C43.1173 21.3827 43.2533 21.588 43.424 21.7C43.5947 21.812 43.784 21.868 43.992 21.868C44.2427 21.868 44.4373 21.7427 44.576 21.492C44.7147 21.2413 44.8133 20.892 44.872 20.444C44.9307 19.996 44.9653 19.476 44.976 18.884C44.9867 18.2867 44.992 17.6467 44.992 16.964C44.992 16.2013 44.9493 15.4893 44.864 14.828C44.7787 14.1613 44.616 13.5773 44.376 13.076C44.136 12.5747 43.7893 12.1827 43.336 11.9C42.8827 11.6173 42.288 11.476 41.552 11.476C41.0347 11.476 40.4693 11.572 39.856 11.764C39.248 11.9507 38.6027 12.3453 37.92 12.948L37.152 12.052C37.8667 11.428 38.5973 10.9827 39.344 10.716C40.096 10.444 40.8267 10.308 41.536 10.308ZM40.672 15.428C39.9413 15.428 39.4427 15.692 39.176 16.22C38.9093 16.748 38.776 17.5293 38.776 18.564C38.776 19.0867 38.8133 19.548 38.888 19.948C38.968 20.3427 39.1013 20.6547 39.288 20.884C39.4747 21.108 39.728 21.22 40.048 21.22C40.4213 21.22 40.7147 21.1347 40.928 20.964C41.1467 20.7933 41.312 20.5987 41.424 20.38C41.5413 20.156 41.632 19.9667 41.696 19.812V15.668C41.5307 15.5827 41.3653 15.5213 41.2 15.484C41.04 15.4467 40.864 15.428 40.672 15.428ZM49.2578 17.764C49.2844 18.4147 49.4098 18.948 49.6338 19.364C49.8578 19.7747 50.1538 20.0787 50.5218 20.276C50.8898 20.468 51.2898 20.564 51.7218 20.564C52.1538 20.564 52.5431 20.5 52.8898 20.372C53.2418 20.244 53.6018 20.0547 53.9698 19.804L54.6018 20.692C54.2071 21.0013 53.7564 21.244 53.2498 21.42C52.7484 21.596 52.2338 21.684 51.7058 21.684C50.8898 21.684 50.1938 21.5 49.6178 21.132C49.0418 20.764 48.6018 20.252 48.2978 19.596C47.9991 18.9347 47.8498 18.1693 47.8498 17.3C47.8498 16.4467 48.0018 15.6893 48.3058 15.028C48.6098 14.3667 49.0364 13.8467 49.5858 13.468C50.1351 13.0893 50.7831 12.9 51.5298 12.9C52.2391 12.9 52.8498 13.068 53.3618 13.404C53.8738 13.7347 54.2658 14.2093 54.5378 14.828C54.8151 15.4413 54.9538 16.1747 54.9538 17.028C54.9538 17.172 54.9511 17.308 54.9458 17.436C54.9404 17.5587 54.9324 17.668 54.9218 17.764H49.2578ZM51.5458 14.004C50.9218 14.004 50.3991 14.2253 49.9778 14.668C49.5618 15.1107 49.3244 15.796 49.2658 16.724H53.6578C53.6418 15.8227 53.4444 15.1453 53.0658 14.692C52.6871 14.2333 52.1804 14.004 51.5458 14.004ZM61.0755 9.684V19.42C61.0755 19.836 61.2035 20.132 61.4595 20.308C61.7208 20.4787 62.0568 20.564 62.4675 20.564C62.7235 20.564 62.9662 20.5373 63.1955 20.484C63.4248 20.4307 63.6542 20.3587 63.8835 20.268L64.2435 21.252C64.0142 21.364 63.7288 21.4627 63.3875 21.548C63.0515 21.6387 62.6702 21.684 62.2435 21.684C61.4968 21.684 60.8915 21.4787 60.4275 21.068C59.9635 20.652 59.7315 20.0787 59.7315 19.348V10.748H57.1475V9.684H61.0755ZM71.6533 13.076V20.436H74.0293V21.5H67.7093V20.436H70.3093V14.14H67.7893V13.076H71.6533ZM70.5813 9.132C70.8799 9.132 71.1173 9.22267 71.2933 9.404C71.4746 9.58533 71.5653 9.80667 71.5653 10.068C71.5653 10.34 71.4746 10.5693 71.2933 10.756C71.1173 10.9373 70.8799 11.028 70.5813 11.028C70.2986 11.028 70.0666 10.9373 69.8853 10.756C69.7039 10.5693 69.6133 10.34 69.6133 10.068C69.6133 9.80667 69.7039 9.58533 69.8853 9.404C70.0666 9.22267 70.2986 9.132 70.5813 9.132ZM83.015 19.66C83.015 19.996 83.071 20.2413 83.183 20.396C83.295 20.5507 83.4683 20.6653 83.703 20.74L83.375 21.684C83.0123 21.636 82.695 21.5213 82.423 21.34C82.151 21.1533 81.9537 20.8733 81.831 20.5C81.527 20.8893 81.1483 21.1853 80.695 21.388C80.2417 21.5853 79.7403 21.684 79.191 21.684C78.3483 21.684 77.6843 21.4467 77.199 20.972C76.7137 20.4973 76.471 19.868 76.471 19.084C76.471 18.2147 76.8097 17.548 77.487 17.084C78.1643 16.62 79.143 16.388 80.423 16.388H81.663V15.684C81.663 15.076 81.4843 14.6467 81.127 14.396C80.775 14.14 80.2843 14.012 79.655 14.012C79.3777 14.012 79.0523 14.0467 78.679 14.116C78.3057 14.18 77.9003 14.2893 77.463 14.444L77.111 13.428C77.6283 13.236 78.1137 13.1 78.567 13.02C79.0203 12.94 79.4523 12.9 79.863 12.9C80.9137 12.9 81.7003 13.1453 82.223 13.636C82.751 14.1213 83.015 14.7827 83.015 15.62V19.66ZM79.535 20.66C79.951 20.66 80.3483 20.556 80.727 20.348C81.1057 20.1347 81.4177 19.8413 81.663 19.468V17.3H80.447C79.519 17.3 78.863 17.46 78.479 17.78C78.1003 18.1 77.911 18.5293 77.911 19.068C77.911 19.5907 78.0443 19.988 78.311 20.26C78.583 20.5267 78.991 20.66 79.535 20.66ZM89.4408 20.572C90.0861 20.572 90.5954 20.452 90.9688 20.212C91.3474 19.9667 91.5368 19.6413 91.5368 19.236C91.5368 18.98 91.4888 18.7587 91.3928 18.572C91.3021 18.3853 91.1128 18.2173 90.8248 18.068C90.5368 17.9187 90.0941 17.7693 89.4968 17.62C88.9154 17.476 88.4088 17.3107 87.9768 17.124C87.5501 16.932 87.2168 16.684 86.9768 16.38C86.7421 16.076 86.6248 15.6813 86.6248 15.196C86.6248 14.7213 86.7581 14.3133 87.0247 13.972C87.2968 13.6253 87.6728 13.3613 88.1528 13.18C88.6328 12.9933 89.1901 12.9 89.8248 12.9C90.5021 12.9 91.0914 12.9907 91.5928 13.172C92.0994 13.348 92.5288 13.5667 92.8808 13.828L92.2888 14.74C91.9688 14.5213 91.6168 14.3427 91.2328 14.204C90.8488 14.06 90.3848 13.988 89.8408 13.988C89.1794 13.988 88.7101 14.092 88.4328 14.3C88.1554 14.5027 88.0168 14.7667 88.0168 15.092C88.0168 15.3373 88.0834 15.5427 88.2168 15.708C88.3554 15.868 88.5874 16.0147 88.9128 16.148C89.2381 16.276 89.6861 16.4173 90.2568 16.572C90.8061 16.716 91.2834 16.8893 91.6888 17.092C92.0994 17.2947 92.4194 17.5613 92.6488 17.892C92.8781 18.2227 92.9928 18.6493 92.9928 19.172C92.9928 19.7693 92.8221 20.2547 92.4808 20.628C92.1394 20.996 91.6968 21.2653 91.1528 21.436C90.6141 21.6013 90.0434 21.684 89.4408 21.684C88.6781 21.684 88.0274 21.5747 87.4888 21.356C86.9554 21.132 86.5074 20.8627 86.1447 20.548L86.9128 19.66C87.2434 19.932 87.6221 20.1533 88.0488 20.324C88.4808 20.4893 88.9448 20.572 89.4408 20.572Z" fill="#ABB2BF"/>
    </g>

    <g id="media-hover">
        <path d="M11.2249 26C19.9045 26 24.6526 18.6883 24.6526 12.3587C24.6526 12.1541 24.6526 11.9466 24.6439 11.742C25.5683 11.0617 26.3661 10.2194 27 9.25459C26.1365 9.64165 25.2215 9.89676 24.2846 10.0116C25.2715 9.41189 26.0106 8.46827 26.3646 7.35615C25.4374 7.91461 24.4226 8.30664 23.3646 8.51509C22.6533 7.74493 21.712 7.23473 20.6866 7.0635C19.6612 6.89228 18.6089 7.06959 17.6927 7.56797C16.7764 8.06635 16.0474 8.85799 15.6185 9.82026C15.1896 10.7825 15.0848 11.8617 15.3203 12.8907C13.444 12.795 11.6084 12.2995 9.93262 11.4362C8.25682 10.5728 6.77823 9.36104 5.59275 7.87935C4.99093 8.93611 4.80726 10.1861 5.07905 11.3756C5.35085 12.565 6.05772 13.6047 7.05612 14.2835C6.30796 14.2576 5.57625 14.0534 4.92 13.6872V13.753C4.92129 14.86 5.2985 15.9326 5.98788 16.7895C6.67726 17.6464 7.63651 18.2351 8.7035 18.4559C8.2985 18.5694 7.88014 18.6259 7.46006 18.624C7.16391 18.6249 6.86836 18.597 6.57744 18.5407C6.87901 19.4937 7.46621 20.3269 8.25679 20.9236C9.04738 21.5203 10.0018 21.8507 10.9863 21.8685C9.3138 23.2039 7.24789 23.9282 5.12125 23.9247C4.74652 23.9263 4.37206 23.9044 4 23.859C6.15843 25.258 8.66512 26.0008 11.2249 26Z" fill="white"/>
        <path d="M41.536 10.308C42.3627 10.308 43.0587 10.4333 43.624 10.684C44.1947 10.9293 44.6587 11.268 45.016 11.7C45.3787 12.132 45.656 12.6333 45.848 13.204C46.0453 13.7693 46.1813 14.372 46.256 15.012C46.3307 15.6467 46.368 16.292 46.368 16.948C46.368 18.292 46.304 19.4093 46.176 20.3C46.0533 21.1853 45.824 21.8467 45.488 22.284C45.152 22.7267 44.6613 22.948 44.016 22.948C43.6853 22.948 43.4 22.868 43.16 22.708C42.92 22.548 42.7227 22.3453 42.568 22.1C42.4133 21.86 42.3013 21.612 42.232 21.356C42.1627 21.0947 42.1307 20.868 42.136 20.676H42.072C41.976 20.9213 41.8373 21.164 41.656 21.404C41.48 21.6387 41.248 21.8333 40.96 21.988C40.672 22.148 40.3147 22.228 39.888 22.228C39.3067 22.228 38.8373 22.0707 38.48 21.756C38.128 21.4413 37.872 21.0067 37.712 20.452C37.552 19.8973 37.472 19.268 37.472 18.564C37.472 17.172 37.7493 16.1373 38.304 15.46C38.8587 14.7773 39.6267 14.436 40.608 14.436C40.9813 14.436 41.3387 14.476 41.68 14.556C42.0213 14.636 42.416 14.796 42.864 15.036V19.764C42.864 20.34 42.9147 20.78 43.016 21.084C43.1173 21.3827 43.2533 21.588 43.424 21.7C43.5947 21.812 43.784 21.868 43.992 21.868C44.2427 21.868 44.4373 21.7427 44.576 21.492C44.7147 21.2413 44.8133 20.892 44.872 20.444C44.9307 19.996 44.9653 19.476 44.976 18.884C44.9867 18.2867 44.992 17.6467 44.992 16.964C44.992 16.2013 44.9493 15.4893 44.864 14.828C44.7787 14.1613 44.616 13.5773 44.376 13.076C44.136 12.5747 43.7893 12.1827 43.336 11.9C42.8827 11.6173 42.288 11.476 41.552 11.476C41.0347 11.476 40.4693 11.572 39.856 11.764C39.248 11.9507 38.6027 12.3453 37.92 12.948L37.152 12.052C37.8667 11.428 38.5973 10.9827 39.344 10.716C40.096 10.444 40.8267 10.308 41.536 10.308ZM40.672 15.428C39.9413 15.428 39.4427 15.692 39.176 16.22C38.9093 16.748 38.776 17.5293 38.776 18.564C38.776 19.0867 38.8133 19.548 38.888 19.948C38.968 20.3427 39.1013 20.6547 39.288 20.884C39.4747 21.108 39.728 21.22 40.048 21.22C40.4213 21.22 40.7147 21.1347 40.928 20.964C41.1467 20.7933 41.312 20.5987 41.424 20.38C41.5413 20.156 41.632 19.9667 41.696 19.812V15.668C41.5307 15.5827 41.3653 15.5213 41.2 15.484C41.04 15.4467 40.864 15.428 40.672 15.428ZM49.2578 17.764C49.2844 18.4147 49.4098 18.948 49.6338 19.364C49.8578 19.7747 50.1538 20.0787 50.5218 20.276C50.8898 20.468 51.2898 20.564 51.7218 20.564C52.1538 20.564 52.5431 20.5 52.8898 20.372C53.2418 20.244 53.6018 20.0547 53.9698 19.804L54.6018 20.692C54.2071 21.0013 53.7564 21.244 53.2498 21.42C52.7484 21.596 52.2338 21.684 51.7058 21.684C50.8898 21.684 50.1938 21.5 49.6178 21.132C49.0418 20.764 48.6018 20.252 48.2978 19.596C47.9991 18.9347 47.8498 18.1693 47.8498 17.3C47.8498 16.4467 48.0018 15.6893 48.3058 15.028C48.6098 14.3667 49.0364 13.8467 49.5858 13.468C50.1351 13.0893 50.7831 12.9 51.5298 12.9C52.2391 12.9 52.8498 13.068 53.3618 13.404C53.8738 13.7347 54.2658 14.2093 54.5378 14.828C54.8151 15.4413 54.9538 16.1747 54.9538 17.028C54.9538 17.172 54.9511 17.308 54.9458 17.436C54.9404 17.5587 54.9324 17.668 54.9218 17.764H49.2578ZM51.5458 14.004C50.9218 14.004 50.3991 14.2253 49.9778 14.668C49.5618 15.1107 49.3244 15.796 49.2658 16.724H53.6578C53.6418 15.8227 53.4444 15.1453 53.0658 14.692C52.6871 14.2333 52.1804 14.004 51.5458 14.004ZM61.0755 9.684V19.42C61.0755 19.836 61.2035 20.132 61.4595 20.308C61.7208 20.4787 62.0568 20.564 62.4675 20.564C62.7235 20.564 62.9662 20.5373 63.1955 20.484C63.4248 20.4307 63.6542 20.3587 63.8835 20.268L64.2435 21.252C64.0142 21.364 63.7288 21.4627 63.3875 21.548C63.0515 21.6387 62.6702 21.684 62.2435 21.684C61.4968 21.684 60.8915 21.4787 60.4275 21.068C59.9635 20.652 59.7315 20.0787 59.7315 19.348V10.748H57.1475V9.684H61.0755ZM71.6533 13.076V20.436H74.0293V21.5H67.7093V20.436H70.3093V14.14H67.7893V13.076H71.6533ZM70.5813 9.132C70.8799 9.132 71.1173 9.22267 71.2933 9.404C71.4746 9.58533 71.5653 9.80667 71.5653 10.068C71.5653 10.34 71.4746 10.5693 71.2933 10.756C71.1173 10.9373 70.8799 11.028 70.5813 11.028C70.2986 11.028 70.0666 10.9373 69.8853 10.756C69.7039 10.5693 69.6133 10.34 69.6133 10.068C69.6133 9.80667 69.7039 9.58533 69.8853 9.404C70.0666 9.22267 70.2986 9.132 70.5813 9.132ZM83.015 19.66C83.015 19.996 83.071 20.2413 83.183 20.396C83.295 20.5507 83.4683 20.6653 83.703 20.74L83.375 21.684C83.0123 21.636 82.695 21.5213 82.423 21.34C82.151 21.1533 81.9537 20.8733 81.831 20.5C81.527 20.8893 81.1483 21.1853 80.695 21.388C80.2417 21.5853 79.7403 21.684 79.191 21.684C78.3483 21.684 77.6843 21.4467 77.199 20.972C76.7137 20.4973 76.471 19.868 76.471 19.084C76.471 18.2147 76.8097 17.548 77.487 17.084C78.1643 16.62 79.143 16.388 80.423 16.388H81.663V15.684C81.663 15.076 81.4843 14.6467 81.127 14.396C80.775 14.14 80.2843 14.012 79.655 14.012C79.3777 14.012 79.0523 14.0467 78.679 14.116C78.3057 14.18 77.9003 14.2893 77.463 14.444L77.111 13.428C77.6283 13.236 78.1137 13.1 78.567 13.02C79.0203 12.94 79.4523 12.9 79.863 12.9C80.9137 12.9 81.7003 13.1453 82.223 13.636C82.751 14.1213 83.015 14.7827 83.015 15.62V19.66ZM79.535 20.66C79.951 20.66 80.3483 20.556 80.727 20.348C81.1057 20.1347 81.4177 19.8413 81.663 19.468V17.3H80.447C79.519 17.3 78.863 17.46 78.479 17.78C78.1003 18.1 77.911 18.5293 77.911 19.068C77.911 19.5907 78.0443 19.988 78.311 20.26C78.583 20.5267 78.991 20.66 79.535 20.66ZM89.4408 20.572C90.0861 20.572 90.5954 20.452 90.9688 20.212C91.3474 19.9667 91.5368 19.6413 91.5368 19.236C91.5368 18.98 91.4888 18.7587 91.3928 18.572C91.3021 18.3853 91.1128 18.2173 90.8248 18.068C90.5368 17.9187 90.0941 17.7693 89.4968 17.62C88.9154 17.476 88.4088 17.3107 87.9768 17.124C87.5501 16.932 87.2168 16.684 86.9768 16.38C86.7421 16.076 86.6248 15.6813 86.6248 15.196C86.6248 14.7213 86.7581 14.3133 87.0247 13.972C87.2968 13.6253 87.6728 13.3613 88.1528 13.18C88.6328 12.9933 89.1901 12.9 89.8248 12.9C90.5021 12.9 91.0914 12.9907 91.5928 13.172C92.0994 13.348 92.5288 13.5667 92.8808 13.828L92.2888 14.74C91.9688 14.5213 91.6168 14.3427 91.2328 14.204C90.8488 14.06 90.3848 13.988 89.8408 13.988C89.1794 13.988 88.7101 14.092 88.4328 14.3C88.1554 14.5027 88.0168 14.7667 88.0168 15.092C88.0168 15.3373 88.0834 15.5427 88.2168 15.708C88.3554 15.868 88.5874 16.0147 88.9128 16.148C89.2381 16.276 89.6861 16.4173 90.2568 16.572C90.8061 16.716 91.2834 16.8893 91.6888 17.092C92.0994 17.2947 92.4194 17.5613 92.6488 17.892C92.8781 18.2227 92.9928 18.6493 92.9928 19.172C92.9928 19.7693 92.8221 20.2547 92.4808 20.628C92.1394 20.996 91.6968 21.2653 91.1528 21.436C90.6141 21.6013 90.0434 21.684 89.4408 21.684C88.6781 21.684 88.0274 21.5747 87.4888 21.356C86.9554 21.132 86.5074 20.8627 86.1447 20.548L86.9128 19.66C87.2434 19.932 87.6221 20.1533 88.0488 20.324C88.4808 20.4893 88.9448 20.572 89.4408 20.572Z" fill="white"/>
    </g>

</svg>


